name C:\Users\u0101727\Documents\MyRepositories\3dpredictsim_mobilecap/Results/TrackSim_mtp/IK_c33_99.mot																																																																																																																															
datacolumns 128																																																																																																																															
datarows 4																																																																																																																															
range 2.3 2.36																																																																																																																															
endheader																																																																																																																															
time	pelvis_tilt	pelvis_list	pelvis_rotation	pelvis_tx	pelvis_ty	pelvis_tz	hip_flexion_l	hip_adduction_l	hip_rotation_l	hip_flexion_r	hip_adduction_r	hip_rotation_r	knee_angle_l	knee_adduction_l	knee_angle_r	knee_adduction_r	ankle_angle_l	ankle_angle_r	subtalar_angle_l	subtalar_angle_r	mtp_angle_l	mtp_angle_r	lumbar_extension	lumbar_bending	lumbar_rotation	arm_flex_l	arm_add_l	arm_rot_l	arm_flex_r	arm_add_r	arm_rot_r	elbow_flex_l	elbow_flex_r	pro_sup_l	pro_sup_r	glut_med1_l/activation	glut_med2_l/activation	glut_med3_l/activation	glut_min1_l/activation	glut_min2_l/activation	glut_min3_l/activation	semimem_l/activation	semiten_l/activation	bifemlh_l/activation	bifemsh_l/activation	sar_l/activation	add_long_l/activation	add_brev_l/activation	add_mag1_l/activation	add_mag2_l/activation	add_mag3_l/activation	tfl_l/activation	pect_l/activation	grac_l/activation	glut_max1_l/activation	glut_max2_l/activation	glut_max3_l/activation	iliacus_l/activation	psoas_l/activation	quad_fem_l/activation	gem_l/activation	peri_l/activation	rect_fem_l/activation	vas_med_l/activation	vas_int_l/activation	vas_lat_l/activation	med_gas_l/activation	lat_gas_l/activation	soleus_l/activation	tib_post_l/activation	flex_dig_l/activation	flex_hal_l/activation	tib_ant_l/activation	per_brev_l/activation	per_long_l/activation	per_tert_l/activation	ext_dig_l/activation	ext_hal_l/activation	ercspn_l/activation	intobl_l/activation	extobl_l/activation	glut_med1_r/activation	glut_med2_r/activation	glut_med3_r/activation	glut_min1_r/activation	glut_min2_r/activation	glut_min3_r/activation	semimem_r/activation	semiten_r/activation	bifemlh_r/activation	bifemsh_r/activation	sar_r/activation	add_long_r/activation	add_brev_r/activation	add_mag1_r/activation	add_mag2_r/activation	add_mag3_r/activation	tfl_r/activation	pect_r/activation	grac_r/activation	glut_max1_r/activation	glut_max2_r/activation	glut_max3_r/activation	iliacus_r/activation	psoas_r/activation	quad_fem_r/activation	gem_r/activation	peri_r/activation	rect_fem_r/activation	vas_med_r/activation	vas_int_r/activation	vas_lat_r/activation	med_gas_r/activation	lat_gas_r/activation	soleus_r/activation	tib_post_r/activation	flex_dig_r/activation	flex_hal_r/activation	tib_ant_r/activation	per_brev_r/activation	per_long_r/activation	per_tert_r/activation	ext_dig_r/activation	ext_hal_r/activation	ercspn_r/activation	intobl_r/activation	extobl_r/activation
2.3	-16.45188885	0.35219964	-2.75775573	-0.35593464	0.8268833	-0.58197641	73.50735313	-17.15791148	-20.32749217	74.01761908	-15.37613434	-29.21379286	-91.4501461	-15.12066143	-91.40826376	-25.67528409	35.09446908	34.89996647	11.035586	16.80998175	5.79279824	5.0083165	-20.53719612	-1.88793805	1.35043766	69.92486814	-17.24333096	43.34617104	69.49202581	-5.01932098	23.14508335	93.51973864	83.64139609	115.9928072	136.5961891	0.00001664	0.02981659	0.23556271	0.00004721	0.00007652	0.00307547	0.03908969	0.03217244	0.69735077	0.00093956	0.00036723	0.00002715	0.00055835	0.15962865	0.21389398	0.38084905	0.01118093	0.00021897	0.00012859	0.20235354	0.46829467	0.48194362	0.00040524	0.0003796	0.51234775	0.08664876	0.2704572	0.00320386	0.62878846	0.70950762	0.980383	0.00122386	0.00085896	0.0144115	0.01602523	0.00439015	0.00369819	0.00412523	0.01246354	0.0361587	0.00180964	0.00276212	0.00201489	0.94151876	0.00015593	0.00000682	0.00002134	0.00039526	0.16205163	0.0000482	0.00008611	0.00060983	0.00357465	0.0023762	0.76421962	0.00109743	0.0005496	0.00001747	0.00007029	0.15070753	0.17331748	0.41224069	0.00615916	0.00019666	0.00005955	0.15606313	0.38853153	0.38557088	0.00047003	0.0004885	0.45949618	0.04114848	0.30983331	0.00251903	0.58012801	0.64792672	0.98120142	0.00101759	0.00039443	0.01865628	0.00380385	0.00103153	0.00120457	0.00217573	0.10057333	0.11563352	0.00625652	0.01223617	0.00535079	0.99998674	0.04452558	0.0000777
2.32	-17.26611479	0.48951616	-2.84944751	-0.35633772	0.81998008	-0.5822268	74.91172749	-17.61108903	-20.60058822	75.50355168	-15.55752754	-28.88901948	-92.36885409	-15.13688841	-92.25963157	-25.78923393	35.1559134	35.07022835	11.03440007	17.69307501	6.23287492	5.97265291	-20.24920018	-1.94371675	1.56041727	80.49509711	-14.78774804	44.07521902	80.68315134	-3.78355993	24.30380439	91.64556063	82.09628385	113.2701821	134.4292458	0.00001579	0.02005585	0.15718827	0.00004534	0.00007484	0.00219154	0.06372295	0.07346449	0.82928367	0.00062864	0.00024714	0.00003094	0.01572807	0.32384326	0.34504141	0.4767063	0.00746063	0.00022652	0.00014142	0.17727094	0.45892462	0.56589802	0.00027107	0.00025471	0.38541656	0.05783465	0.34015411	0.00213693	0.71914471	0.80217922	0.99997033	0.00081665	0.00057469	0.00961018	0.01069	0.00295769	0.00249513	0.00919944	0.03394082	0.05498888	0.02160903	0.06845276	0.0194495	0.98420803	0.00010456	0.00000631	0.00001945	0.00029059	0.16485021	0.00004446	0.00007836	0.00046895	0.00238809	0.00162878	0.88180668	0.00073595	0.00036922	0.00001818	0.00009111	0.17494733	0.19839834	0.35766875	0.00411264	0.00019966	0.00006029	0.17571923	0.46588326	0.50748783	0.00031433	0.00032748	0.62250398	0.10062782	0.34248599	0.00168111	0.65168726	0.71418426	0.99997345	0.00067929	0.00026573	0.01244071	0.00253932	0.00071291	0.00082732	0.00383888	0.06712603	0.1079528	0.01553896	0.04968849	0.01178414	0.99999556	0.07448429	0.00005242
2.34	-17.67666113	0.61454025	-2.98285345	-0.35523013	0.8166292	-0.58222281	75.49401923	-18.0338127	-20.70791632	76.20458177	-15.55112097	-28.34443422	-92.85671061	-14.95339119	-92.69625527	-25.61366821	35.18224261	35.1118055	11.25215531	18.19446715	6.62515746	6.88718024	-20.29882451	-2.0699924	1.65620559	89.91100315	-12.42177375	43.32148068	91.04278117	-2.46499047	24.75401835	89.38881954	80.05649282	111.1350264	132.2879944	0.00001416	0.01341052	0.26701847	0.00004061	0.00006616	0.00151212	0.05515891	0.04927239	0.82979961	0.00042124	0.00016702	0.00002965	0.01052678	0.22804753	0.28313463	0.49868133	0.00497932	0.00021776	0.00013778	0.20849853	0.53918084	0.60040143	0.00018156	0.00017133	0.57691083	0.11407482	0.25365464	0.00142556	0.76844307	0.85084935	0.99998076	0.0005452	0.00038538	0.00641168	0.00962637	0.00494272	0.00275422	0.00623121	0.0226413	0.03666605	0.01449774	0.04565621	0.01306826	0.99997136	0.00007044	0.00000688	0.00001645	0.00020672	0.16395885	0.00003812	0.00006608	0.0003441	0.00159607	0.00110802	0.8937861	0.00049474	0.00024906	0.00001746	0.00010129	0.29949987	0.28549604	0.33904376	0.00274692	0.00019913	0.00005755	0.1582447	0.45203678	0.53062679	0.00021044	0.00021998	0.6745227	0.07867152	0.35088979	0.00112254	0.69448381	0.76235556	0.99994253	0.00045374	0.00017995	0.0082971	0.00169605	0.0005014	0.00057664	0.00283609	0.05467236	0.13931033	0.02385572	0.06404567	0.01829677	0.99998409	0.04966207	0.00003568
2.36	-17.68349357	0.72151496	-3.14190219	-0.35230502	0.81719224	-0.58194326	75.19971317	-18.41092875	-21.40405446	76.12595078	-15.35687166	-27.51650889	-92.88322411	-15.32849936	-92.71377815	-25.20817874	35.18871577	35.01583055	11.690136	18.77751109	6.98533316	7.28794547	-20.60954929	-2.26675929	1.60144965	98.06251177	-10.28890023	41.53850312	100.1618907	-1.25028995	24.54615602	86.88585918	77.93640996	109.8377663	130.3432612	0.00001285	0.00897464	0.17832796	0.0000372	0.00006003	0.00104851	0.12471501	0.14494528	0.89889813	0.00028293	0.00011359	0.00003927	0.1102042	0.40078196	0.42782086	0.54870042	0.00332383	0.00028846	0.0001987	0.19622545	0.51843723	0.67956776	0.00012183	0.00011566	0.38461771	0.07607883	0.28619179	0.00095127	0.78430655	0.87222242	0.99990328	0.00036428	0.00025936	0.00428721	0.00644015	0.00338631	0.00203207	0.00418302	0.01514901	0.02497985	0.0097323	0.03045677	0.00878447	0.91530266	0.00004789	0.00000933	0.00001389	0.00014643	0.12449282	0.00003246	0.00005515	0.00025102	0.00106703	0.00074862	0.91659961	0.00033373	0.00016929	0.00001571	0.00008412	0.19974559	0.19044525	0.2521227	0.00183518	0.00018517	0.00005098	0.12787121	0.42612256	0.46823416	0.0001411	0.00014814	0.68610927	0.1452985	0.29530329	0.00075046	0.75162578	0.82175363	0.99997869	0.00030344	0.00012331	0.00553892	0.00113398	0.00036604	0.0004178	0.00193614	0.03657195	0.18193594	0.0160126	0.04272716	0.01234812	0.99994868	0.0331653	0.00002477
